<svg xmlns="http://www.w3.org/2000/svg" xmlns:xlink="http://www.w3.org/1999/xlink" xmlns:inkscape="http://www.inkscape.org/namespaces/inkscape" version="1.1" width="317.3775" height="230.88488" viewBox="0 0 317.3775 230.88488">
<defs>
<path id="font_1_11" d="M.107910159 .7294922H.4951172V.6464844H.19824219V.46777345C.21256511 .47265626 .22688802 .47631837 .24121094 .47875978 .25553385 .48120118 .26985679 .48242188 .2841797 .48242188 .3655599 .48242188 .43001304 .4600779 .47753907 .41539 .5250651 .37071229 .5488281 .31021119 .5488281 .23388672 .5488281 .15528362 .52441409 .09420776 .47558595 .05065918 .4267578 .007120768 .35791017-.0146484379 .26904298-.0146484379 .23844402-.0146484379 .20727539-.0120442709 .17553711-.0068359377 .14379883-.0016276041 .1110026 .006184896 .07714844 .016601563V.11621094C.10644531 .100097659 .13671875 .08809408 .16796875 .080200199 .19921875 .07230631 .23225911 .068359378 .26708985 .068359378 .32340495 .068359378 .3680013 .083211269 .4008789 .11291504 .4337565 .14262899 .4501953 .18295288 .4501953 .23388672 .4501953 .28482057 .4337565 .32513938 .4008789 .35484315 .3680013 .3845571 .32340495 .39941407 .26708985 .39941407 .24072266 .39941407 .21443685 .39648438 .18823242 .390625 .162028 .38476563 .1352539 .37565104 .107910159 .36328126V.7294922Z"/>
<path id="font_1_8" d="M.3178711 .6640625C.26708985 .6640625 .22892253 .6390584 .20336914 .5890503 .17781575 .5390422 .16503906 .4638672 .16503906 .3635254 .16503906 .26350913 .17781575 .1884969 .20336914 .13848877 .22892253 .08848063 .26708985 .06347656 .3178711 .06347656 .36897788 .06347656 .40730796 .08848063 .43286134 .13848877 .4584147 .1884969 .4711914 .26350913 .4711914 .3635254 .4711914 .4638672 .4584147 .5390422 .43286134 .5890503 .40730796 .6390584 .36897788 .6640625 .3178711 .6640625M.3178711 .7421875C.3995768 .7421875 .46199546 .7098592 .50512698 .64520266 .5482585 .5805461 .5698242 .48665367 .5698242 .3635254 .5698242 .24072266 .5482585 .146993 .50512698 .082336429 .46199546 .01767985 .3995768-.0146484379 .3178711-.0146484379 .23616536-.0146484379 .17374675 .01767985 .13061524 .082336429 .08748373 .146993 .06591797 .24072266 .06591797 .3635254 .06591797 .48665367 .08748373 .5805461 .13061524 .64520266 .17374675 .7098592 .23616536 .7421875 .3178711 .7421875Z"/>
<path id="font_1_18" d="M.09814453 .7294922H.24511719L.43115235 .23339844 .61816409 .7294922H.7651367V0H.6689453V.640625L.48095704 .140625H.38183595L.19384766 .640625V0H.09814453V.7294922Z"/>
<path id="font_1_15" d="M.19677735 .3486328V.08105469H.35498048C.40804038 .08105469 .44734703 .09206136 .4729004 .11407471 .49845378 .13608806 .51123049 .16975911 .51123049 .21508789 .51123049 .2607422 .49845378 .29441325 .4729004 .31610108 .44734703 .3377889 .40804038 .3486328 .35498048 .3486328H.19677735M.19677735 .6484375V.42871095H.34277345C.39095054 .42871095 .4268392 .43774415 .45043946 .45581056 .4740397 .47387696 .48583985 .50146487 .48583985 .5385742 .48583985 .5753581 .4740397 .60286459 .45043946 .62109377 .4268392 .63932296 .39095054 .6484375 .34277345 .6484375H.19677735M.09814453 .7294922H.35009767C.42529298 .7294922 .4832357 .7138672 .5239258 .6826172 .5646159 .6513672 .58496096 .6069336 .58496096 .5493164 .58496096 .50472006 .57454428 .46923829 .55371096 .4428711 .5328776 .4165039 .5022786 .4000651 .46191407 .3935547 .5104167 .38312785 .5480957 .3613739 .5749512 .32829286 .60180667 .2952118 .6152344 .25390116 .6152344 .20436096 .6152344 .13917542 .59309896 .08881632 .5488281 .05328369 .5045573 .01776123 .441569 0 .35986329 0H.09814453V.7294922Z"/>
<path id="font_1_21" d="M.34277345 .27539063C.27018229 .27539063 .21988933 .26704917 .19189453 .2503662 .16389974 .23369344 .14990235 .20524597 .14990235 .1650238 .14990235 .13298035 .16040039 .107554119 .18139649 .08874512 .20239258 .06994629 .23095703 .060546876 .26708985 .060546876 .31689454 .060546876 .3568522 .07828776 .3869629 .11376953 .41707359 .14926148 .4321289 .19644673 .4321289 .25532533V.27539063H.34277345M.52197268 .3125V0H.4321289V.08300781C.4116211 .049641927 .38606773 .025024414 .35546876 .009155273 .32486979-.006713867 .2874349-.0146484379 .24316406-.0146484379 .18717449-.0146484379 .1426595 .0010986328 .10961914 .032592775 .07657877 .064097087 .060058595 .106287639 .060058595 .15916443 .060058595 .22085063 .08064779 .2673594 .12182617 .2986908 .16300456 .33003236 .22444661 .34570313 .30615235 .34570313H.4321289V.3544922C.4321289 .39583335 .41853843 .42781578 .39135743 .45043946 .36417643 .47306315 .32600913 .484375 .27685548 .484375 .24560547 .484375 .21516927 .4806315 .18554688 .47314454 .15592449 .46565757 .1274414 .4544271 .100097659 .43945313V.52246096C.13297527 .53515627 .1648763 .54467776 .19580078 .5510254 .22672527 .55737307 .25683595 .5605469 .2861328 .5605469 .36523438 .5605469 .4243164 .54003909 .4633789 .49902345 .5024414 .4580078 .52197268 .39583335 .52197268 .3125Z"/>
<path id="font_1_27" d="M.4428711 .53125V.44628907C.41748048 .4593099 .39111329 .46907554 .36376954 .47558595 .33642579 .48209635 .30810548 .48535157 .2788086 .48535157 .23421224 .48535157 .20076497 .47850038 .1784668 .46479798 .15616863 .45109559 .14501953 .430542 .14501953 .4031372 .14501953 .38226319 .1529948 .36587016 .16894531 .35395814 .18489583 .3420461 .21695964 .33070884 .26513673 .3199463L.29589845 .31307984C.35970054 .2993876 .4050293 .2800649 .43188478 .2551117 .45874024 .23016866 .47216798 .19535828 .47216798 .15068054 .47216798 .09980774 .45206706 .05953471 .41186524 .02986145 .37166343 .00018819173 .31640626-.0146484379 .24609375-.0146484379 .21679688-.0146484379 .1862793-.01180013 .15454102-.0061035158 .122802738-.00040690104 .08935547 .0081380209 .05419922 .01953125V.11230469C.087402347 .095052089 .12011719 .08211263 .15234375 .07348633 .18457031 .06486002 .21647136 .060546876 .24804688 .060546876 .2903646 .060546876 .32291667 .06780497 .34570313 .08232117 .3684896 .096837367 .3798828 .11730448 .3798828 .14372254 .3798828 .16818746 .37166343 .1869456 .3552246 .19999695 .3387858 .2130483 .30273438 .22560628 .24707031 .2376709L.21582031 .24501038C.16015625 .25674949 .11995443 .274765 .095214847 .299057 .07047526 .32335917 .05810547 .3567098 .05810547 .3991089 .05810547 .4506429 .07633463 .49043275 .11279297 .5184784 .1492513 .54652407 .20100911 .5605469 .2680664 .5605469 .30126954 .5605469 .33251954 .55810549 .3618164 .55322268 .39111329 .54833987 .4181315 .5410156 .4428711 .53125Z"/>
<path id="font_1_22" d="M.5620117 .29589845V.25195313H.14892578C.15283203 .1899414 .1714681 .1427002 .20483399 .11022949 .23819988 .07775879 .28466798 .061523439 .34423829 .061523439 .3787435 .061523439 .41219078 .06575521 .44458009 .07421875 .4769694 .08268229 .50911459 .0953776 .5410156 .11230469V.02734375C.50878909 .013671875 .4757487 .0032552083 .44189454-.00390625 .40804038-.011067708 .3736979-.0146484379 .3388672-.0146484379 .2516276-.0146484379 .18253581 .010782878 .1315918 .061645509 .08064779 .11251831 .05517578 .18132019 .05517578 .26805116 .05517578 .35772196 .0793457 .42888896 .12768555 .48155213 .17602539 .5342153 .24121094 .5605469 .3232422 .5605469 .3968099 .5605469 .45499674 .53681948 .49780274 .48936463 .5406087 .44191996 .5620117 .37743125 .5620117 .29589845M.47216798 .32226563C.47151695 .37157188 .45776368 .4109141 .4309082 .44029237 .40405274 .4696808 .3684896 .484375 .32421876 .484375 .27408854 .484375 .2339681 .47016908 .20385742 .4417572 .17374675 .4133555 .15641277 .3733622 .15185547 .32177735L.47216798 .32226563Z"/>
<path id="font_1_20" d="M.2861328 0 .0078125 .7294922H.110839847L.34179688 .11531067 .5732422 .7294922H.67578127L.39794923 0H.2861328Z"/>
<path id="font_1_9" d="M.19189453 .08300781H.5361328V0H.07324219V.08300781C.110677089 .12174479 .16170247 .17374675 .22631836 .23901367 .29093424 .3042806 .33154298 .34635417 .34814454 .36523438 .37972007 .40071617 .40177409 .43074546 .41430665 .45532228 .4268392 .47989909 .43310548 .50406906 .43310548 .52783206 .43310548 .56656906 .41951499 .59814456 .39233399 .6225586 .36515299 .64697268 .3297526 .6591797 .2861328 .6591797 .25520835 .6591797 .22257488 .6537679 .18823242 .64294436 .15388997 .6321208 .1171875 .61572268 .078125 .59375V.6933594C.11783854 .70947268 .15494792 .721639 .18945313 .7298584 .22395833 .7380778 .25553385 .7421875 .2841797 .7421875 .35970054 .7421875 .41992188 .7233073 .46484376 .6855469 .5097656 .64778646 .53222659 .59733077 .53222659 .5341797 .53222659 .50423178 .5266113 .47583009 .51538088 .4489746 .5041504 .42211915 .48372398 .39046226 .45410157 .3540039 .44596354 .3445638 .42008464 .31730143 .37646485 .2722168 .33284507 .22713216 .27132163 .1640625 .19189453 .08300781Z"/>
<path id="font_1_17" d="M.09814453 .7294922H.19677735V.08300781H.5517578V0H.09814453V.7294922Z"/>
<path id="font_1_6" d="M.106933597 .12402344H.20996094V0H.106933597V.12402344Z"/>
<clipPath id="clip_2">
<path transform="matrix(1,0,0,-1,0,230.88488)" d="M39.3875 39.275H310.17753V216.67673H39.3875Z"/>
</clipPath>
<clipPath id="clip_3">
<path transform="matrix(1,0,0,-1,0,230.88488)" d="M39.3875 39.275H310.17753V216.67673H39.3875Z"/>
</clipPath>
<clipPath id="clip_4">
<path transform="matrix(1,0,0,-1,0,230.88488)" d="M39.3875 39.275H310.17753V216.67673H39.3875Z"/>
</clipPath>
<path id="font_1_10" d="M.3779297 .64346316 .12890625 .25390626H.3779297V.64346316M.35205079 .7294922H.47607423V.25390626H.5800781V.171875H.47607423V0H.3779297V.171875H.048828126V.26716615L.35205079 .7294922Z"/>
<clipPath id="clip_5">
<path transform="matrix(1,0,0,-1,0,230.88488)" d="M39.3875 39.275H310.17753V216.67673H39.3875Z"/>
</clipPath>
<path id="font_1_12" d="M.33007813 .4033203C.28580729 .4033203 .25073243 .3881836 .22485352 .35791017 .19897461 .32763673 .18603516 .2861328 .18603516 .23339844 .18603516 .18098958 .19897461 .13956706 .22485352 .10913086 .25073243 .078694667 .28580729 .06347656 .33007813 .06347656 .37434898 .06347656 .40942384 .078694667 .43530274 .10913086 .46118165 .13956706 .4741211 .18098958 .4741211 .23339844 .4741211 .2861328 .46118165 .32763673 .43530274 .35791017 .40942384 .3881836 .37434898 .4033203 .33007813 .4033203M.5258789 .7128906V.6230469C.50113937 .6347656 .4761556 .64371749 .45092774 .64990237 .42569987 .6560872 .40071617 .6591797 .37597657 .6591797 .3108724 .6591797 .26114909 .6371663 .22680664 .59313967 .19246419 .549113 .17285156 .48258464 .16796875 .3935547 .18717449 .421875 .21126302 .44360353 .24023438 .45874024 .26920573 .47387696 .30110679 .4814453 .3359375 .4814453 .4091797 .4814453 .46704103 .45922853 .5095215 .41479493 .55200198 .37036134 .5732422 .30989585 .5732422 .23339844 .5732422 .15852864 .55110678 .098470058 .50683596 .053222658 .4625651 .007975261 .40364585-.0146484379 .33007813-.0146484379 .24576824-.0146484379 .18131511 .01767985 .13671875 .082336429 .0921224 .146993 .06982422 .24072266 .06982422 .3635254 .06982422 .47883097 .09716797 .5707652 .15185547 .639328 .20654297 .707901 .2799479 .7421875 .3720703 .7421875 .3968099 .7421875 .4217936 .7397461 .44702149 .7348633 .47224937 .72998049 .49853517 .72265627 .5258789 .7128906Z"/>
<path id="font_1_19" d="M-.0029296876 .7294922H.61376956V.6464844H.35498048V0H.25585938V.6464844H-.0029296876V.7294922Z"/>
<path id="font_1_16" d="M.09814453 .7294922H.51708987V.6464844H.19677735V.43164063H.48583985V.3486328H.19677735V0H.09814453V.7294922Z"/>
<path id="font_1_3" d=""/>
<path id="font_1_4" d="M.3100586 .75878909C.2664388 .68391928 .23404949 .6098633 .21289063 .5366211 .19173177 .4633789 .18115235 .38916017 .18115235 .31396485 .18115235 .23876953 .19181316 .16430664 .21313477 .09057617 .23445638 .016845704 .2667643-.057291669 .3100586-.13183594H.2319336C.18310547-.055338544 .14656575 .019856772 .12231445 .09375 .09806315 .16764324 .0859375 .24104817 .0859375 .31396485 .0859375 .386556 .09798177 .4596354 .12207031 .5332031 .14615886 .6067708 .18277996 .6819661 .2319336 .75878909H.3100586Z"/>
<path id="font_1_7" d="M.25390626 .7294922H.33691407L.08300781-.09277344H0L.25390626 .7294922Z"/>
<path id="font_1_26" d="M.14794922 .27294923C.14794922 .2067159 .16153972 .15475464 .1887207 .11706543 .21590169 .07938639 .25325523 .060546876 .30078126 .060546876 .34830729 .060546876 .3857422 .07938639 .41308595 .11706543 .4404297 .15475464 .45410157 .2067159 .45410157 .27294923 .45410157 .33918254 .4404297 .3911387 .41308595 .42881776 .3857422 .46650697 .34830729 .48535157 .30078126 .48535157 .25325523 .48535157 .21590169 .46650697 .1887207 .42881776 .16153972 .3911387 .14794922 .33918254 .14794922 .27294923M.45410157 .08203125C.43522135 .049316408 .41137696 .025024414 .38256837 .009155273 .35375978-.006713867 .3191732-.0146484379 .2788086-.0146484379 .21272786-.0146484379 .15893555 .011764526 .11743164 .064590457 .075927738 .11741638 .05517578 .18686931 .05517578 .27294923 .05517578 .35902915 .075927738 .42848207 .11743164 .48130799 .15893555 .5341339 .21272786 .5605469 .2788086 .5605469 .3191732 .5605469 .35375978 .5526123 .38256837 .53674319 .41137696 .520874 .43522135 .49658204 .45410157 .4638672V.546875H.5439453V-.20800781H.45410157V.08203125Z"/>
<path id="font_1_29" d="M.08496094 .21582031V.546875H.17480469V.21923828C.17480469 .1673177 .18489583 .12837728 .20507813 .10241699 .22526042 .0764567 .25553385 .06347656 .29589845 .06347656 .34440104 .06347656 .3827311 .07897949 .41088868 .10998535 .43904624 .14100139 .453125 .1832784 .453125 .2368164V.546875H.54296877V0H.453125V.083984378C.4313151 .05061849 .40600587 .025838217 .37719728 .009643555 .34838868-.006551107 .3149414-.0146484379 .27685548-.0146484379 .21402996-.0146484379 .16634114 .0049235026 .13378906 .044067384 .10123698 .083211269 .08496094 .14046224 .08496094 .21582031M.31103517 .5605469V.5605469Z"/>
<path id="font_1_28" d="M.18310547 .70214846V.546875H.36816407V.4765625H.18310547V.18005371C.18310547 .13550823 .18920899 .106892909 .20141602 .09420776 .21362305 .0815328 .23844402 .07519531 .2758789 .07519531H.36816407V0H.2758789C.20654297 0 .1586914 .01292928 .13232422 .03878784 .10595703 .06465658 .09277344 .1117452 .09277344 .18005371V.4765625H.026855469V.546875H.09277344V.70214846H.18310547Z"/>
<path id="font_1_23" d="M.09423828 .546875H.18408203V0H.09423828V.546875M.09423828 .7597656H.18408203V.6455078H.09423828V.7597656Z"/>
<path id="font_1_25" d="M.30615235 .484375C.25797526 .484375 .21988933 .4655304 .19189453 .4278412 .16389974 .39016215 .14990235 .3385315 .14990235 .27294923 .14990235 .20736695 .16381836 .1557312 .19165039 .11804199 .21948242 .08036295 .25764976 .061523439 .30615235 .061523439 .3540039 .061523439 .3919271 .080444339 .41992188 .11828613 .44791667 .1561381 .46191407 .20769246 .46191407 .27294923 .46191407 .33788047 .44791667 .38934837 .41992188 .4273529 .3919271 .46536765 .3540039 .484375 .30615235 .484375M.30615235 .5605469C.38427735 .5605469 .44563804 .5351105 .49023438 .48423768 .53483077 .43337504 .5571289 .36294557 .5571289 .27294923 .5571289 .1832784 .53483077 .11292521 .49023438 .06188965 .44563804 .010864258 .38427735-.0146484379 .30615235-.0146484379 .22770183-.0146484379 .16625977 .010864258 .12182617 .06188965 .07739258 .11292521 .05517578 .1832784 .05517578 .27294923 .05517578 .36294557 .07739258 .43337504 .12182617 .48423768 .16625977 .5351105 .22770183 .5605469 .30615235 .5605469Z"/>
<path id="font_1_24" d="M.5488281 .33007813V0H.45898438V.32714845C.45898438 .379069 .44889323 .41792808 .42871095 .4437256 .40852867 .4695231 .37825523 .48242188 .33789063 .48242188 .28938804 .48242188 .2511393 .46691386 .22314453 .43589784 .19514974 .40489198 .18115235 .36262004 .18115235 .30908204V0H.09082031V.546875H.18115235V.46191407C.20263672 .49495445 .22794597 .5196533 .25708009 .53601077 .2862142 .55236819 .31982423 .5605469 .35791017 .5605469 .4207357 .5605469 .46826173 .54105636 .5004883 .5020752 .53271487 .4630941 .5488281 .40576173 .5488281 .33007813Z"/>
<path id="font_1_5" d="M.080078128 .75878909H.15820313C.20703125 .6819661 .24357097 .6067708 .26782228 .5332031 .29207359 .4596354 .30419923 .386556 .30419923 .31396485 .30419923 .24104817 .29207359 .16764324 .26782228 .09375 .24357097 .019856772 .20703125-.055338544 .15820313-.13183594H.080078128C.1233724-.057291669 .15568035 .016845704 .17700196 .09057617 .19832357 .16430664 .20898438 .23876953 .20898438 .31396485 .20898438 .38916017 .19832357 .4633789 .17700196 .5366211 .15568035 .6098633 .1233724 .68391928 .080078128 .75878909Z"/>
<clipPath id="clip_6">
<path transform="matrix(1,0,0,-1,0,230.88488)" d="M39.3875 39.275H310.17753V216.67673H39.3875Z"/>
</clipPath>
<clipPath id="clip_7">
<path transform="matrix(1,0,0,-1,0,230.88488)" d="M39.3875 39.275H310.17753V216.67673H39.3875Z"/>
</clipPath>
<clipPath id="clip_8">
<path transform="matrix(1,0,0,-1,0,230.88488)" d="M39.3875 39.275H310.17753V216.67673H39.3875Z"/>
</clipPath>
<clipPath id="clip_9">
<path transform="matrix(1,0,0,-1,0,230.88488)" d="M39.3875 39.275H310.17753V216.67673H39.3875Z"/>
</clipPath>
<path id="font_1_13" d="M.08203125 .7294922H.55078127V.6874695L.2861328 0H.18310547L.4321289 .6464844H.08203125V.7294922Z"/>
<path id="font_1_14" d="M.3178711 .34570313C.2709961 .34570313 .23413086 .33317057 .20727539 .30810548 .18041992 .28304038 .16699219 .24853516 .16699219 .20458985 .16699219 .16064453 .18041992 .12613933 .20727539 .10107422 .23413086 .07600912 .2709961 .06347656 .3178711 .06347656 .3647461 .06347656 .40169273 .07609049 .42871095 .10131836 .45572917 .12654622 .46923829 .16097005 .46923829 .20458985 .46923829 .24853516 .45581056 .28304038 .42895509 .30810548 .4020996 .33317057 .36507163 .34570313 .3178711 .34570313M.21923828 .3879547C.17692058 .39838157 .1439616 .41808573 .12036133 .44706727 .09676107 .47605897 .08496094 .5114034 .08496094 .5531006 .08496094 .6114095 .10571289 .6575012 .1472168 .69137576 .1887207 .72525027 .24560547 .7421875 .3178711 .7421875 .39046226 .7421875 .44742839 .72525027 .48876954 .69137576 .53011068 .6575012 .55078127 .6114095 .55078127 .5531006 .55078127 .5114034 .53898116 .47605897 .51538088 .44706727 .4917806 .41808573 .45898438 .39838157 .4169922 .3879547 .46451823 .37687684 .5015462 .35521446 .5280762 .32296754 .55460616 .2907206 .5678711 .25130717 .5678711 .20472718 .5678711 .13404846 .54630538 .07981364 .5031738 .042022706 .46004234 .0042419435 .39827476-.0146484379 .3178711-.0146484379 .23746746-.0146484379 .17569988 .0042419435 .13256836 .042022706 .08943685 .07981364 .067871097 .13404846 .067871097 .20472718 .067871097 .25130717 .081217449 .2907206 .107910159 .32296754 .13460286 .35521446 .17171224 .37687684 .21923828 .3879547M.18310547 .5439453C.18310547 .5061849 .1949056 .47672526 .21850586 .4555664 .24210613 .43440757 .27522788 .42382813 .3178711 .42382813 .3601888 .42382813 .39331056 .43440757 .41723634 .4555664 .4411621 .47672526 .453125 .5061849 .453125 .5439453 .453125 .58170577 .4411621 .61116537 .41723634 .6323242 .39331056 .6534831 .3601888 .6640625 .3178711 .6640625 .27522788 .6640625 .24210613 .6534831 .21850586 .6323242 .1949056 .61116537 .18310547 .58170577 .18310547 .5439453Z"/>
</defs>
<path transform="matrix(1,0,0,-1,0,230.88488)" d="M0 0H317.3775V230.88488H0Z" fill="#ffffff"/>
<path transform="matrix(1,0,0,-1,0,230.88488)" d="M39.3875 39.275H310.1775V216.67671H39.3875Z" fill="#ffffff"/>
<path transform="matrix(1,0,0,-1,0,230.88488)" d="M70.452159 39.275V35.775"/>
<path transform="matrix(1,0,0,-1,0,230.88488)" stroke-width=".8" stroke-linecap="butt" stroke-linejoin="round" fill="none" stroke="#000000" d="M70.452159 39.275V35.775"/>
<use data-text="5" xlink:href="#font_1_11" transform="matrix(12,0,0,-12,53.811529,207.73488)"/>
<use data-text="0" xlink:href="#font_1_8" transform="matrix(12,0,0,-12,61.443529,207.73488)"/>
<use data-text="0" xlink:href="#font_1_8" transform="matrix(12,0,0,-12,69.07553,207.73488)"/>
<use data-text="M" xlink:href="#font_1_18" transform="matrix(12,0,0,-12,76.70753,207.73488)"/>
<use data-text="B" xlink:href="#font_1_15" transform="matrix(12,0,0,-12,55.834966,221.18488)"/>
<use data-text="a" xlink:href="#font_1_21" transform="matrix(12,0,0,-12,64.06696,221.18488)"/>
<use data-text="s" xlink:href="#font_1_27" transform="matrix(12,0,0,-12,71.422969,221.18488)"/>
<use data-text="e" xlink:href="#font_1_22" transform="matrix(12,0,0,-12,77.674968,221.18488)"/>
<path transform="matrix(1,0,0,-1,0,230.88488)" d="M118.9052 39.275V35.775"/>
<path transform="matrix(1,0,0,-1,0,230.88488)" stroke-width=".8" stroke-linecap="butt" stroke-linejoin="round" fill="none" stroke="#000000" d="M118.9052 39.275V35.775"/>
<use data-text="5" xlink:href="#font_1_11" transform="matrix(12,0,0,-12,102.26457,207.73488)"/>
<use data-text="0" xlink:href="#font_1_8" transform="matrix(12,0,0,-12,109.896579,207.73488)"/>
<use data-text="0" xlink:href="#font_1_8" transform="matrix(12,0,0,-12,117.52857,207.73488)"/>
<use data-text="M" xlink:href="#font_1_18" transform="matrix(12,0,0,-12,125.160579,207.73488)"/>
<use data-text="V" xlink:href="#font_1_20" transform="matrix(12,0,0,-12,107.63957,221.18488)"/>
<use data-text="2" xlink:href="#font_1_9" transform="matrix(12,0,0,-12,115.84757,221.18488)"/>
<use data-text="L" xlink:href="#font_1_17" transform="matrix(12,0,0,-12,123.47957,221.18488)"/>
<path transform="matrix(1,0,0,-1,0,230.88488)" d="M230.6598 39.275V35.775"/>
<path transform="matrix(1,0,0,-1,0,230.88488)" stroke-width=".8" stroke-linecap="butt" stroke-linejoin="round" fill="none" stroke="#000000" d="M230.6598 39.275V35.775"/>
<use data-text="2" xlink:href="#font_1_9" transform="matrix(12,0,0,-12,216.99575,207.73488)"/>
<use data-text="." xlink:href="#font_1_6" transform="matrix(12,0,0,-12,224.62775,207.73488)"/>
<use data-text="2" xlink:href="#font_1_9" transform="matrix(12,0,0,-12,228.44374,207.73488)"/>
<use data-text="B" xlink:href="#font_1_15" transform="matrix(12,0,0,-12,236.07575,207.73488)"/>
<use data-text="B" xlink:href="#font_1_15" transform="matrix(12,0,0,-12,216.04262,221.18488)"/>
<use data-text="a" xlink:href="#font_1_21" transform="matrix(12,0,0,-12,224.27462,221.18488)"/>
<use data-text="s" xlink:href="#font_1_27" transform="matrix(12,0,0,-12,231.63062,221.18488)"/>
<use data-text="e" xlink:href="#font_1_22" transform="matrix(12,0,0,-12,237.88262,221.18488)"/>
<path transform="matrix(1,0,0,-1,0,230.88488)" d="M279.11286 39.275V35.775"/>
<path transform="matrix(1,0,0,-1,0,230.88488)" stroke-width=".8" stroke-linecap="butt" stroke-linejoin="round" fill="none" stroke="#000000" d="M279.11286 39.275V35.775"/>
<use data-text="2" xlink:href="#font_1_9" transform="matrix(12,0,0,-12,265.4488,207.73488)"/>
<use data-text="." xlink:href="#font_1_6" transform="matrix(12,0,0,-12,273.08079,207.73488)"/>
<use data-text="2" xlink:href="#font_1_9" transform="matrix(12,0,0,-12,276.8968,207.73488)"/>
<use data-text="B" xlink:href="#font_1_15" transform="matrix(12,0,0,-12,284.5288,207.73488)"/>
<use data-text="V" xlink:href="#font_1_20" transform="matrix(12,0,0,-12,267.84724,221.18488)"/>
<use data-text="2" xlink:href="#font_1_9" transform="matrix(12,0,0,-12,276.05525,221.18488)"/>
<use data-text="L" xlink:href="#font_1_17" transform="matrix(12,0,0,-12,283.68724,221.18488)"/>
<g clip-path="url(#clip_2)">
<path transform="matrix(1,0,0,-1,0,230.88488)" stroke-width=".9" stroke-linecap="square" stroke-linejoin="round" fill="none" stroke="#d9dde3" stroke-opacity=".85" d="M39.3875 39.275H310.1775"/>
</g>
<path transform="matrix(1,0,0,-1,0,230.88488)" d="M39.3875 39.275H35.8875"/>
<path transform="matrix(1,0,0,-1,0,230.88488)" stroke-width=".8" stroke-linecap="butt" stroke-linejoin="round" fill="none" stroke="#000000" d="M39.3875 39.275H35.8875"/>
<use data-text="0" xlink:href="#font_1_8" transform="matrix(12,0,0,-12,24.746876,196.17237)"/>
<g clip-path="url(#clip_3)">
<path transform="matrix(1,0,0,-1,0,230.88488)" stroke-width=".9" stroke-linecap="square" stroke-linejoin="round" fill="none" stroke="#d9dde3" stroke-opacity=".85" d="M39.3875 87.160709H310.1775"/>
</g>
<path transform="matrix(1,0,0,-1,0,230.88488)" d="M39.3875 87.160709H35.8875"/>
<path transform="matrix(1,0,0,-1,0,230.88488)" stroke-width=".8" stroke-linecap="butt" stroke-linejoin="round" fill="none" stroke="#000000" d="M39.3875 87.160709H35.8875"/>
<use data-text="2" xlink:href="#font_1_9" transform="matrix(12,0,0,-12,24.746876,148.28667)"/>
<g clip-path="url(#clip_4)">
<path transform="matrix(1,0,0,-1,0,230.88488)" stroke-width=".9" stroke-linecap="square" stroke-linejoin="round" fill="none" stroke="#d9dde3" stroke-opacity=".85" d="M39.3875 135.04642H310.1775"/>
</g>
<path transform="matrix(1,0,0,-1,0,230.88488)" d="M39.3875 135.04642H35.8875"/>
<path transform="matrix(1,0,0,-1,0,230.88488)" stroke-width=".8" stroke-linecap="butt" stroke-linejoin="round" fill="none" stroke="#000000" d="M39.3875 135.04642H35.8875"/>
<use data-text="4" xlink:href="#font_1_10" transform="matrix(12,0,0,-12,24.746876,100.400959)"/>
<g clip-path="url(#clip_5)">
<path transform="matrix(1,0,0,-1,0,230.88488)" stroke-width=".9" stroke-linecap="square" stroke-linejoin="round" fill="none" stroke="#d9dde3" stroke-opacity=".85" d="M39.3875 182.93213H310.1775"/>
</g>
<path transform="matrix(1,0,0,-1,0,230.88488)" d="M39.3875 182.93213H35.8875"/>
<path transform="matrix(1,0,0,-1,0,230.88488)" stroke-width=".8" stroke-linecap="butt" stroke-linejoin="round" fill="none" stroke="#000000" d="M39.3875 182.93213H35.8875"/>
<use data-text="6" xlink:href="#font_1_12" transform="matrix(12,0,0,-12,24.746876,52.515245)"/>
<use data-text="T" xlink:href="#font_1_19" transform="matrix(0,-14,-14,-0,17.840626,163.44809)"/>
<use data-text="T" xlink:href="#font_1_19" transform="matrix(0,-14,-14,-0,17.840626,155.12847)"/>
<use data-text="F" xlink:href="#font_1_16" transform="matrix(0,-14,-14,-0,17.840626,146.57447)"/>
<use data-text="T" xlink:href="#font_1_19" transform="matrix(0,-14,-14,-0,17.840626,138.75884)"/>
<use data-text=" " xlink:href="#font_1_3" transform="matrix(0,-14,-14,-0,17.840626,130.20484)"/>
<use data-text="(" xlink:href="#font_1_4" transform="matrix(0,-14,-14,-0,17.840626,125.75284)"/>
<use data-text="s" xlink:href="#font_1_27" transform="matrix(0,-14,-14,-0,17.840626,120.29284)"/>
<use data-text="/" xlink:href="#font_1_7" transform="matrix(0,-14,-14,-0,17.840626,112.99884)"/>
<use data-text="q" xlink:href="#font_1_26" transform="matrix(0,-14,-14,-0,17.840626,108.28084)"/>
<use data-text="u" xlink:href="#font_1_29" transform="matrix(0,-14,-14,-0,17.840626,99.39084)"/>
<use data-text="e" xlink:href="#font_1_22" transform="matrix(0,-14,-14,-0,17.840626,90.51484)"/>
<use data-text="s" xlink:href="#font_1_27" transform="matrix(0,-14,-14,-0,17.840626,81.90484)"/>
<use data-text="t" xlink:href="#font_1_28" transform="matrix(0,-14,-14,-0,17.840626,74.61084)"/>
<use data-text="i" xlink:href="#font_1_23" transform="matrix(0,-14,-14,-0,17.840626,69.12284)"/>
<use data-text="o" xlink:href="#font_1_25" transform="matrix(0,-14,-14,-0,17.840626,65.23084)"/>
<use data-text="n" xlink:href="#font_1_24" transform="matrix(0,-14,-14,-0,17.840626,56.66284)"/>
<use data-text=")" xlink:href="#font_1_5" transform="matrix(0,-14,-14,-0,17.840626,47.786844)"/>
<g clip-path="url(#clip_6)">
<path transform="matrix(1,0,0,-1,0,230.88488)" d="M51.696138 39.275H89.20817V193.6608H51.696138Z" fill="#35699a"/>
</g>
<g clip-path="url(#clip_7)">
<path transform="matrix(1,0,0,-1,0,230.88488)" d="M100.14918 39.275H137.66121V52.411874H100.14918Z" fill="#c45a3d"/>
</g>
<g clip-path="url(#clip_8)">
<path transform="matrix(1,0,0,-1,0,230.88488)" d="M211.90378 39.275H249.41582V208.229H211.90378Z" fill="#35699a"/>
</g>
<g clip-path="url(#clip_9)">
<path transform="matrix(1,0,0,-1,0,230.88488)" d="M260.35685 39.275H297.86888V53.23108H260.35685Z" fill="#c45a3d"/>
</g>
<path transform="matrix(1,0,0,-1,0,230.88488)" stroke-width=".8" stroke-linecap="square" stroke-miterlimit="10" stroke-linejoin="miter" fill="none" stroke="#000000" d="M39.3875 39.275V216.67671"/>
<path transform="matrix(1,0,0,-1,0,230.88488)" stroke-width=".8" stroke-linecap="square" stroke-miterlimit="10" stroke-linejoin="miter" fill="none" stroke="#000000" d="M39.3875 39.275H310.1775"/>
<use data-text="6" xlink:href="#font_1_12" transform="matrix(12,0,0,-12,57.084966,30.893219)"/>
<use data-text="." xlink:href="#font_1_6" transform="matrix(12,0,0,-12,64.716968,30.893219)"/>
<use data-text="4" xlink:href="#font_1_10" transform="matrix(12,0,0,-12,68.53297,30.893219)"/>
<use data-text="5" xlink:href="#font_1_11" transform="matrix(12,0,0,-12,76.16496,30.893219)"/>
<use data-text="0" xlink:href="#font_1_8" transform="matrix(12,0,0,-12,105.53801,172.14215)"/>
<use data-text="." xlink:href="#font_1_6" transform="matrix(12,0,0,-12,113.17001,172.14215)"/>
<use data-text="5" xlink:href="#font_1_11" transform="matrix(12,0,0,-12,116.98601,172.14215)"/>
<use data-text="5" xlink:href="#font_1_11" transform="matrix(12,0,0,-12,124.61801,172.14215)"/>
<use data-text="7" xlink:href="#font_1_13" transform="matrix(12,0,0,-12,217.29262,16.325013)"/>
<use data-text="." xlink:href="#font_1_6" transform="matrix(12,0,0,-12,224.92462,16.325013)"/>
<use data-text="0" xlink:href="#font_1_8" transform="matrix(12,0,0,-12,228.74062,16.325013)"/>
<use data-text="6" xlink:href="#font_1_12" transform="matrix(12,0,0,-12,236.37262,16.325013)"/>
<use data-text="0" xlink:href="#font_1_8" transform="matrix(12,0,0,-12,265.74568,171.32294)"/>
<use data-text="." xlink:href="#font_1_6" transform="matrix(12,0,0,-12,273.37767,171.32294)"/>
<use data-text="5" xlink:href="#font_1_11" transform="matrix(12,0,0,-12,277.19367,171.32294)"/>
<use data-text="8" xlink:href="#font_1_14" transform="matrix(12,0,0,-12,284.82569,171.32294)"/>
</svg>
